:SAMPLES-PER-SECOND 30
:FULLY-SPECIFIED
:DEGREES
479
root  -0.364051 39.6046 15.2679 -173.108 0.913879 -179.875
RightUpLeg  -20.0548 3.24784 -5.76788
RightLeg  15.697 3.41417 0.0627625
RightFoot  -1.26789 -0.394046 4.35811
RightToes  -5.8209e-011 0 -3.6325e-017
Spine  36.6748 -0.125429 5.32685
Spine1  8.89191 1.34596 1.29326
HEad  9.96529 -7.78356 0.379817
LeftShoulder1  6.17922 -16.5891 -24.5166
LeftArm  -5.81469 -39.3929 -78.8469
LeftForeArm  45.0562 5.30504 1.20829
LeftHand  -0.246645 0.021 5.37786
RightShoulder  9.05944 17.3875 37.2984
RightArm  -5.5821 39.5911 54.0036
RightForeArm  20.5536 -2.7729 9.08045
RightHand  -0.24729 -0.0210522 -5.37781
LeftUpLeg  -18.3565 13.4399 7.82927
LeftLeg  13.2575 -1.76856 -1.18117
LeftFoot  0.877808 0.854665 -8.02579
LeftToes  -7.45818e-011 -3.37383e-011 1.08613e-011
480
root  -0.372191 39.6017 15.2625 -173.104 1.056 -179.925
RightUpLeg  -20.1154 3.32687 -5.84853
RightLeg  15.7663 3.46409 0.0992462
RightFoot  -1.29518 -0.393417 4.3453
RightToes  -5.8209e-011 0 -3.6325e-017
Spine  36.7009 -0.0657234 5.33503
Spine1  8.93871 1.40572 1.32954
HEad  9.6395 -7.62296 0.475503
LeftShoulder1  6.21146 -16.578 -24.7029
LeftArm  -5.56346 -39.3389 -78.5318
LeftForeArm  44.7544 5.36137 0.923425
LeftHand  -0.246645 0.021 5.37786
RightShoulder  9.03975 17.358 37.2669
RightArm  -5.47585 39.59 54.1245
RightForeArm  20.718 -2.55544 9.1133
RightHand  -0.24729 -0.0210522 -5.37781
LeftUpLeg  -18.3432 13.4507 7.76984
LeftLeg  13.3062 -1.6521 -1.13938
LeftFoot  0.837742 0.853416 -8.03989
LeftToes  -7.45818e-011 -3.37383e-011 1.08613e-011
481
root  -0.377774 39.5977 15.2598 -173.057 1.2225 -179.92
RightUpLeg  -20.2207 3.45966 -5.87175
RightLeg  15.8133 3.47202 0.123849
RightFoot  -1.29167 -0.39209 4.32803
RightToes  -5.8209e-011 0 -3.6325e-017
Spine  36.7142 -0.0199621 5.43474
Spine1  8.98356 1.51703 1.24824
HEad  9.48171 -7.65103 0.796283
LeftShoulder1  6.27596 -16.6061 -24.9929
LeftArm  -5.14333 -39.2747 -77.9988
LeftForeArm  44.1816 5.45648 0.449226
LeftHand  -0.246645 0.021 5.37786
RightShoulder  9.03296 17.3424 37.2669
RightArm  -5.39373 39.5496 54.1578
RightForeArm  21.1142 -2.3204 9.13788
RightHand  -0.24729 -0.0210522 -5.37781
LeftUpLeg  -18.3897 13.5746 7.75909
LeftLeg  13.3851 -1.61864 -1.1268
LeftFoot  0.784406 0.854213 -8.08029
LeftToes  -7.45818e-011 -3.37383e-011 1.08613e-011
482
root  -0.378162 39.594 15.2589 -172.992 1.36728 -179.87
RightUpLeg  -20.3202 3.60963 -5.84286
RightLeg  15.8137 3.45476 0.13366
RightFoot  -1.26516 -0.391201 4.32545
RightToes  -5.8209e-011 0 -3.6325e-017
Spine  36.7128 0.00524521 5.57049
Spine1  9.06264 1.63329 1.12375
HEad  9.48848 -7.87471 1.03478
LeftShoulder1  6.35113 -16.6788 -25.2638
LeftArm  -4.72138 -39.257 -77.4254
LeftForeArm  43.5699 5.55219 -0.0258026
LeftHand  -0.246645 0.021 5.37786
RightShoulder  9.03356 17.3659 37.2221
RightArm  -5.38449 39.4452 54.1343
RightForeArm  21.6026 -2.05743 9.13955
RightHand  -0.24729 -0.0210522 -5.37781
LeftUpLeg  -18.4637 13.7745 7.79385
LeftLeg  13.4662 -1.67227 -1.15008
LeftFoot  0.736679 0.853852 -8.10183
LeftToes  -7.45818e-011 -3.37383e-011 1.08613e-011
483
root  -0.379786 39.5885 15.2622 -172.971 1.45602 -179.871
RightUpLeg  -20.4022 3.74608 -5.87655
RightLeg  15.8809 3.41299 0.146698
RightFoot  -1.27853 -0.391003 4.34296
RightToes  -5.8209e-011 0 -3.6325e-017
Spine  36.817 0.0262704 5.652
Spine1  9.10233 1.70789 1.07264
HEad  9.50289 -8.11998 1.00992
LeftShoulder1  6.4045 -16.7333 -25.45
LeftArm  -4.53869 -39.269 -77.0685
LeftForeArm  43.3865 5.59393 -0.244997
LeftHand  -0.246645 0.021 5.37786
RightShoulder  9.01495 17.395 37.0764
RightArm  -5.50763 39.3527 54.185
RightForeArm  22.1789 -1.92914 9.06553
RightHand  -0.24729 -0.0210522 -5.37781
LeftUpLeg  -18.5153 13.9325 7.77162
LeftLeg  13.5487 -1.74562 -1.16786
LeftFoot  0.706902 0.851403 -8.09645
LeftToes  -7.45818e-011 -3.37383e-011 1.08613e-011
